# xmcd CD database file
#
# Track frame offsets:
#	150
#	16848
#	36110
#	58173
#	73708
#	91370
#	114828
#	128735
#	144543
#	169721
#	187226
#	208976
#	217318
#	239636
#	259930
#
# Disc length: 3632 seconds
#
# Revision: 0
# Processed by: cddbd v1.5.2PL0 Copyright (c) Steve Scherf et al.
# Submitted via: CDex 1.51
#
DISCID=eb0e2e0f
DTITLE=Sara Gazarek - Return to you
DYEAR=2007
DGENRE=Jazz
TTITLE0=Let's try this again
TTITLE1=Northern lights
TTITLE2=Carey
TTITLE3=Junk
TTITLE4=Just let me be
TTITLE5=And so it goes
TTITLE6=I've got a great idea
TTITLE7=Dear someone
TTITLE8=Hallelujah
TTITLE9=Makes me feel this way
TTITLE10=without you
TTITLE11=Original 4
TTITLE12=My man's gone now
TTITLE13=More(live)
TTITLE14=Too darn hot(live)
EXTD=YEAR: 2007
EXTT0=
EXTT1=
EXTT2=
EXTT3=
EXTT4=
EXTT5=
EXTT6=
EXTT7=
EXTT8=
EXTT9=
EXTT10=
EXTT11=
EXTT12=
EXTT13=
EXTT14=
PLAYORDER=
